<svg width="459" height="366" viewBox="0 0 459 366" fill="none" xmlns="http://www.w3.org/2000/svg">
<circle cx="229.5" cy="180.5" r="179.5" fill="white"/>
<g clip-path="url(#clip0)">
<path d="M27.4392 345.592C27.4392 345.592 7.79402 344.409 10.1085 358.152C10.1085 358.152 9.64374 360.578 11.8513 361.682C11.8513 361.682 11.8885 360.662 13.8684 361.01C14.5728 361.128 15.289 361.162 16.0016 361.112C16.9663 361.046 17.8832 360.668 18.6135 360.035C18.6135 360.035 24.1348 357.758 26.2866 348.75C26.2866 348.75 27.876 346.784 27.811 346.278L24.4973 347.67C24.4973 347.67 25.6266 350.058 24.7389 352.039C24.7389 352.039 24.6274 347.758 23.9907 347.864C23.8606 347.888 22.2711 348.695 22.2711 348.695C22.2711 348.695 24.2184 352.869 22.7359 355.875C22.7359 355.875 23.2936 350.749 21.6483 348.991L19.3246 350.355C19.3246 350.355 21.6065 354.65 20.0589 358.152C20.0589 358.152 20.4539 352.776 18.8366 350.684L16.7219 352.331C16.7219 352.331 18.8598 356.566 17.5539 359.47C17.5539 359.47 17.3865 353.212 16.2618 352.739C16.2618 352.739 14.4028 354.367 14.1286 355.059C14.1286 355.059 15.5972 358.129 14.6863 359.753C14.6863 359.753 14.1286 355.578 13.6732 355.578C13.6732 355.578 11.8141 358.338 11.6375 360.216C11.6375 360.216 11.7165 357.396 13.2223 355.295C12.1594 355.495 11.1786 356.001 10.4013 356.751C10.4013 356.751 10.6894 354.799 13.6778 354.627C13.6778 354.627 15.2022 352.535 15.6112 352.405C15.6112 352.405 12.6368 352.159 10.8335 352.957C10.8335 352.957 12.4183 351.102 16.1549 351.951L18.2463 350.248C18.2463 350.248 14.3285 349.715 12.6693 350.304C12.6693 350.304 14.5794 348.676 18.8087 349.864L21.0813 348.509C21.0813 348.509 17.7398 347.79 15.7506 348.045C15.7506 348.045 17.8513 346.913 21.7459 348.138L23.3726 347.41C23.3726 347.41 20.9233 346.946 20.2076 346.853C19.4919 346.76 19.4547 346.58 19.4547 346.58C21.0046 346.322 22.5958 346.498 24.0511 347.09C24.0511 347.09 27.4996 345.81 27.4392 345.592Z" fill="#0084F8"/>
<path opacity="0.1" d="M13.9054 365.226C21.5852 365.226 27.8109 364.175 27.8109 362.879C27.8109 361.583 21.5852 360.532 13.9054 360.532C6.22567 360.532 0 361.583 0 362.879C0 364.175 6.22567 365.226 13.9054 365.226Z" fill="#0084F8"/>
<path d="M458.791 314.38C458.791 314.38 447.711 313.712 449.031 321.458C448.963 321.852 449.022 322.257 449.199 322.615C449.376 322.973 449.662 323.266 450.016 323.453C450.016 323.453 450.016 322.877 451.15 323.072C451.548 323.137 451.952 323.156 452.354 323.128C452.898 323.092 453.415 322.88 453.827 322.525C453.827 322.525 456.941 321.24 458.154 316.161C458.154 316.161 459.046 315.052 459.014 314.77L457.155 315.567C457.155 315.567 457.792 316.912 457.29 318.035C457.29 318.035 457.229 315.618 456.871 315.674C456.797 315.674 455.895 316.138 455.895 316.138C455.895 316.138 456.997 318.457 456.17 320.183C456.17 320.183 456.481 317.297 455.556 316.305L454.236 317.07C454.236 317.07 455.524 319.496 454.65 321.472C454.65 321.472 454.878 318.438 453.962 317.26L452.768 318.188C452.768 318.188 453.976 320.572 453.232 322.214C453.232 322.214 453.135 318.684 452.503 318.42C452.05 318.801 451.646 319.235 451.299 319.714C451.299 319.714 452.126 321.444 451.615 322.363C451.615 322.363 451.299 320.011 451.039 320.002C451.039 320.002 450.002 321.555 449.895 322.622C449.943 321.633 450.251 320.673 450.788 319.839C450.188 319.953 449.635 320.24 449.198 320.665C449.198 320.665 449.361 319.561 451.057 319.464C451.057 319.464 451.917 318.285 452.149 318.211C452.149 318.211 450.472 318.072 449.454 318.522C449.454 318.522 450.351 317.483 452.456 317.956L453.632 316.996C453.632 316.996 451.424 316.694 450.49 317.028C450.49 317.028 451.568 316.101 453.948 316.778L455.231 316.013C454.245 315.797 453.236 315.711 452.228 315.758C452.228 315.758 453.409 315.117 455.607 315.809L456.537 315.396C456.537 315.396 455.142 315.127 454.757 315.085C454.371 315.043 454.329 314.932 454.329 314.932C455.204 314.787 456.101 314.886 456.922 315.219C456.922 315.219 458.823 314.501 458.791 314.38Z" fill="#0084F8"/>
<path opacity="0.1" d="M451.16 325.447C455.49 325.447 459 324.855 459 324.125C459 323.395 455.49 322.803 451.16 322.803C446.829 322.803 443.319 323.395 443.319 324.125C443.319 324.855 446.829 325.447 451.16 325.447Z" fill="#0084F8"/>
<path d="M436.009 335.471C436.009 335.471 422.633 334.668 424.232 344.028C424.151 344.504 424.222 344.992 424.436 345.425C424.649 345.857 424.994 346.211 425.422 346.436C425.422 346.436 425.422 345.74 426.816 345.972C427.296 346.053 427.785 346.076 428.27 346.041C428.926 345.996 429.549 345.739 430.046 345.309C430.046 345.309 433.806 343.759 435.265 337.627C435.265 337.627 436.348 336.287 436.306 335.944L434.047 336.908C434.047 336.908 434.819 338.532 434.215 339.882C434.215 339.882 434.14 336.964 433.708 337.034C433.62 337.034 432.532 337.595 432.532 337.595C432.532 337.595 433.862 340.429 432.858 342.484C432.858 342.484 433.239 338.996 432.119 337.804L430.529 338.731C430.529 338.731 432.082 341.658 431.031 344.042C431.031 344.042 431.301 340.383 430.195 338.94L428.759 340.058C428.759 340.058 430.213 342.943 429.325 344.919C429.325 344.919 429.209 340.661 428.443 340.341C428.443 340.341 427.183 341.445 426.992 341.904C426.992 341.904 427.992 343.996 427.374 345.1C427.374 345.1 426.992 342.261 426.681 342.247C426.681 342.247 425.426 344.126 425.287 345.415C425.349 344.224 425.723 343.07 426.37 342.066C425.645 342.203 424.976 342.548 424.446 343.059C424.446 343.059 424.641 341.732 426.676 341.616C426.676 341.616 427.713 340.188 427.992 340.1C427.992 340.1 425.965 339.933 424.738 340.475C424.738 340.475 425.821 339.223 428.363 339.794L429.786 338.634C429.786 338.634 427.118 338.268 425.989 338.671C425.989 338.671 427.29 337.562 430.171 338.37L431.719 337.442C431.719 337.442 429.446 336.955 428.094 337.131C428.094 337.131 429.521 336.361 432.174 337.196L433.281 336.7C433.281 336.7 431.612 336.37 431.129 336.319C430.645 336.268 430.613 336.134 430.613 336.134C431.668 335.959 432.75 336.079 433.741 336.482C433.741 336.482 436.046 335.619 436.009 335.471Z" fill="#0084F8"/>
<path opacity="0.1" d="M426.793 348.834C432.021 348.834 436.26 348.119 436.26 347.238C436.26 346.357 432.021 345.643 426.793 345.643C421.564 345.643 417.326 346.357 417.326 347.238C417.326 348.119 421.564 348.834 426.793 348.834Z" fill="#0084F8"/>
<path opacity="0.1" d="M374.354 343.625C398.053 343.625 417.265 340.632 417.265 336.941C417.265 333.25 398.053 330.257 374.354 330.257C350.656 330.257 331.444 333.25 331.444 336.941C331.444 340.632 350.656 343.625 374.354 343.625Z" fill="#0084F8"/>
<path opacity="0.1" d="M238.567 361.019C265.197 361.019 286.786 358.857 286.786 356.19C286.786 353.523 265.197 351.362 238.567 351.362C211.937 351.362 190.349 353.523 190.349 356.19C190.349 358.857 211.937 361.019 238.567 361.019Z" fill="#0084F8"/>
<path opacity="0.1" d="M92.4813 356.223C112.695 356.223 129.081 355.213 129.081 353.968C129.081 352.723 112.695 351.714 92.4813 351.714C72.268 351.714 55.882 352.723 55.882 353.968C55.882 355.213 72.268 356.223 92.4813 356.223Z" fill="#0084F8"/>
<path opacity="0.1" d="M157.463 15.8865C171.039 3.8267 192.352 1.35444 211.746 2.31459C272.671 5.33417 327.665 34.6905 375.237 67.8966C392.461 79.9146 409.415 92.8696 420.593 109.424C443.366 143.117 436.599 189.798 404.958 217.559C394.19 227.002 381.14 234.257 367.741 240.662C343.918 252.077 318.212 261.238 291.177 263.854C271.895 265.71 252.375 264.202 233.209 261.605C179.651 254.35 127.082 238.32 83.0236 210.907C63.6992 198.847 45.4808 183.912 37.515 164.454C29.5491 144.996 34.6474 120.338 54.3809 108.821C62.5419 104.057 72.3018 101.905 81.8524 99.8875C95.9159 96.9143 110.202 93.9828 122.895 87.9344C136.001 81.6911 151.519 69.6174 148.921 55.7997C146.142 40.9708 143.906 27.9463 157.463 15.8865Z" fill="#0084F8"/>
<path opacity="0.9" d="M269.957 181.722V93.1571H282.04V66.7184H195.457V93.1571H207.54V181.722C190.853 188.048 176.487 199.287 166.349 213.95C156.211 228.613 150.779 246.006 150.775 263.822C150.775 312.316 190.168 351.626 238.758 351.626C287.348 351.626 326.736 312.316 326.736 263.822C326.731 246.005 321.298 228.61 311.157 213.947C301.016 199.284 286.647 188.045 269.957 181.722Z" fill="#96B7FE"/>
<path opacity="0.1" d="M269.957 92.8835H207.522V94.0756H269.957V92.8835Z" fill="black"/>
<path d="M189.531 261.465C189.531 261.465 242.513 260.538 269.004 247.304C295.495 234.071 310.632 245.885 309.21 253.914C307.788 261.943 300.226 277.514 269.952 279.425C239.678 281.336 189.531 261.465 189.531 261.465Z" fill="#0084F8"/>
<path opacity="0.1" d="M189.531 261.465C189.531 261.465 242.513 260.538 269.004 247.304C295.495 234.071 310.632 245.885 309.21 253.914C307.788 261.943 300.226 277.514 269.952 279.425C239.678 281.336 189.531 261.465 189.531 261.465Z" fill="black"/>
<path d="M166.842 252.977C166.842 252.977 161.181 331.343 235.426 332.757C309.67 334.172 309.214 253.905 309.214 253.905C309.214 253.905 281.794 283.641 216.98 259.095C216.98 259.114 183.396 250.143 166.842 252.977Z" fill="#0084F8"/>
<path opacity="0.1" d="M308.973 254.188C307.49 272.24 297.875 328.75 235.453 327.558C174.264 326.403 167.335 273.015 166.791 254.234C166.452 264.313 166.754 331.44 235.44 332.753C309.703 334.144 309.228 253.9 309.228 253.9C309.228 253.9 309.136 254.016 308.973 254.188Z" fill="black"/>
<path opacity="0.3" d="M235.876 228.779C241.197 228.779 245.511 224.474 245.511 219.163C245.511 213.853 241.197 209.548 235.876 209.548C230.556 209.548 226.242 213.853 226.242 219.163C226.242 224.474 230.556 228.779 235.876 228.779Z" fill="#0084F8"/>
<path opacity="0.3" d="M241.379 186.648C244.672 186.648 247.342 183.984 247.342 180.697C247.342 177.411 244.672 174.746 241.379 174.746C238.086 174.746 235.416 177.411 235.416 180.697C235.416 183.984 238.086 186.648 241.379 186.648Z" fill="#0084F8"/>
<path opacity="0.3" d="M228.073 152.301C231.366 152.301 234.036 149.637 234.036 146.35C234.036 143.063 231.366 140.399 228.073 140.399C224.78 140.399 222.11 143.063 222.11 146.35C222.11 149.637 224.78 152.301 228.073 152.301Z" fill="#0084F8"/>
<path opacity="0.2" d="M176.983 226.58C176.472 230.634 176.574 235.708 180.204 237.601C177.16 236.015 189.638 218.027 187.867 214.353C184.08 206.514 177.448 222.814 176.983 226.58Z" fill="white"/>
<path opacity="0.3" d="M223.254 49.0462C228.574 49.0462 232.888 44.7412 232.888 39.4308C232.888 34.1204 228.574 29.8154 223.254 29.8154C217.933 29.8154 213.619 34.1204 213.619 39.4308C213.619 44.7412 217.933 49.0462 223.254 49.0462Z" fill="#0084F8"/>
<path opacity="0.3" d="M252.157 30.0938C256.112 30.0938 259.319 26.8937 259.319 22.9461C259.319 18.9985 256.112 15.7983 252.157 15.7983C248.201 15.7983 244.995 18.9985 244.995 22.9461C244.995 26.8937 248.201 30.0938 252.157 30.0938Z" fill="#0084F8"/>
<path opacity="0.3" d="M231.512 7.43068C233.568 7.43068 235.235 5.76727 235.235 3.71534C235.235 1.66341 233.568 0 231.512 0C229.456 0 227.79 1.66341 227.79 3.71534C227.79 5.76727 229.456 7.43068 231.512 7.43068Z" fill="#0084F8"/>
<path opacity="0.9" d="M131.902 122.073H54.0415V145.121H65.9067V324.932C65.8597 328.51 66.5252 332.061 67.8645 335.38C69.2038 338.699 71.1902 341.719 73.7085 344.266C76.2268 346.812 79.2268 348.834 82.5344 350.214C85.842 351.594 89.3913 352.305 92.9762 352.305C96.5612 352.305 100.11 351.594 103.418 350.214C106.726 348.834 109.726 346.812 112.244 344.266C114.762 341.719 116.749 338.699 118.088 335.38C119.427 332.061 120.093 328.51 120.046 324.932V145.121H131.902V122.073Z" fill="#96B7FE"/>
<path d="M83.9437 185.86C83.9437 185.86 103.212 178.99 108.576 183.875C108.576 183.875 100.772 195.322 93.5874 194.863C86.4023 194.404 83.9437 185.86 83.9437 185.86Z" fill="#0084F8"/>
<path opacity="0.1" d="M83.9437 185.86C83.9437 185.86 103.212 178.99 108.576 183.875C108.576 183.875 100.772 195.322 93.5874 194.863C86.4023 194.404 83.9437 185.86 83.9437 185.86Z" fill="black"/>
<path d="M108.566 183.893V314.399C108.566 316.563 108.139 318.707 107.309 320.707C106.479 322.707 105.262 324.524 103.729 326.055C102.195 327.586 100.374 328.8 98.37 329.628C96.366 330.457 94.2182 330.883 92.0491 330.883C87.6684 330.883 83.4672 329.147 80.3696 326.055C77.272 322.964 75.5317 318.771 75.5317 314.399V183.893C75.5317 183.893 83.4837 181.755 90.9755 186.338C98.4673 190.92 108.566 183.893 108.566 183.893Z" fill="#0084F8"/>
<path opacity="0.1" d="M120.037 144.977H65.8975V146.039H120.037V144.977Z" fill="black"/>
<path opacity="0.1" d="M92.0491 322.947C89.8796 322.947 87.7314 322.521 85.7271 321.692C83.7228 320.863 81.9018 319.648 80.3679 318.117C78.8341 316.586 77.6175 314.768 76.7877 312.768C75.9579 310.767 75.5311 308.623 75.5317 306.458V314.7C75.5317 319.072 77.272 323.265 80.3696 326.357C83.4672 329.448 87.6684 331.185 92.0491 331.185C96.4298 331.185 100.631 329.448 103.729 326.357C106.826 323.265 108.566 319.072 108.566 314.7V306.458C108.567 308.623 108.14 310.767 107.31 312.768C106.481 314.768 105.264 316.586 103.73 318.117C102.196 319.648 100.375 320.863 98.3711 321.692C96.3668 322.521 94.2186 322.947 92.0491 322.947Z" fill="black"/>
<path opacity="0.3" d="M92.0538 171.077C93.9121 171.077 95.4186 169.574 95.4186 167.719C95.4186 165.864 93.9121 164.361 92.0538 164.361C90.1954 164.361 88.689 165.864 88.689 167.719C88.689 169.574 90.1954 171.077 92.0538 171.077Z" fill="#0084F8"/>
<path opacity="0.3" d="M103.064 157.951C104.247 157.951 105.206 156.993 105.206 155.812C105.206 154.631 104.247 153.674 103.064 153.674C101.881 153.674 100.921 154.631 100.921 155.812C100.921 156.993 101.881 157.951 103.064 157.951Z" fill="#0084F8"/>
<path opacity="0.3" d="M88.0755 153.679C89.2588 153.679 90.218 152.721 90.218 151.54C90.218 150.359 89.2588 149.402 88.0755 149.402C86.8922 149.402 85.933 150.359 85.933 151.54C85.933 152.721 86.8922 153.679 88.0755 153.679Z" fill="#0084F8"/>
<path opacity="0.2" d="M70.0895 210.554C69.5782 214.608 69.6805 219.683 73.3102 221.575C70.2614 219.989 82.7447 202.006 80.974 198.328C77.177 190.498 70.5542 206.793 70.0895 210.554Z" fill="white"/>
<path opacity="0.3" d="M99.0344 107.652C103.549 107.652 107.209 103.999 107.209 99.4931C107.209 94.9871 103.549 91.3342 99.0344 91.3342C94.5195 91.3342 90.8594 94.9871 90.8594 99.4931C90.8594 103.999 94.5195 107.652 99.0344 107.652Z" fill="#0084F8"/>
<path opacity="0.3" d="M74.5093 91.5709C77.8666 91.5709 80.5883 88.8546 80.5883 85.5039C80.5883 82.1532 77.8666 79.4369 74.5093 79.4369C71.152 79.4369 68.4303 82.1532 68.4303 85.5039C68.4303 88.8546 71.152 91.5709 74.5093 91.5709Z" fill="#0084F8"/>
<path opacity="0.3" d="M92.0259 72.3402C93.7713 72.3402 95.1862 70.928 95.1862 69.1861C95.1862 67.4441 93.7713 66.032 92.0259 66.032C90.2805 66.032 88.8656 67.4441 88.8656 69.1861C88.8656 70.928 90.2805 72.3402 92.0259 72.3402Z" fill="#0084F8"/>
<path d="M416.354 209.339C416.354 209.339 409.22 173.93 411.948 169.523C411.948 169.523 412.046 165.428 411.883 160.21C411.883 160.01 411.883 159.811 411.883 159.607C412.361 159.932 412.861 160.223 413.38 160.479C415.894 161.773 418.784 162.145 421.545 161.531L419.375 159.129C418.859 158.554 418.315 157.937 418.204 157.176C418.174 156.444 418.334 155.717 418.669 155.066C420.718 149.894 420.844 143.386 416.875 139.439C413.538 136.118 412.72 131.832 409.113 128.803C406.464 126.581 405.009 123.325 403.634 120.185C402.472 117.523 401.31 114.842 400.636 112.021C400.116 109.818 399.911 107.541 399.195 105.389C398.48 103.236 397.151 101.144 395.064 100.184C394.29 99.9145 393.539 99.5825 392.819 99.1917C391.927 98.5933 391.392 97.6193 390.751 96.7704C387.498 92.4521 376.529 94.994 371.343 96.7473C369.934 97.1881 368.63 97.9092 367.509 98.867L367.555 98.7881L367.685 98.598C367.119 99.0559 366.63 99.6007 366.235 100.212C365.478 101.409 365.161 102.814 364.534 104.076C363.772 105.607 359.543 109.878 361.36 111.599C361.485 111.715 361.627 111.809 361.783 111.878C362.461 112.154 363.205 112.228 363.925 112.091C363.897 112.151 363.869 112.212 363.846 112.272C363.229 113.791 362.913 115.415 362.917 117.054C362.947 120.485 364.342 123.764 366.795 126.169C369.247 128.574 372.557 129.909 375.995 129.879C377.354 129.881 378.705 129.675 380.001 129.267C380.034 129.429 380.062 129.592 380.089 129.754C380.089 129.824 380.089 129.888 380.122 129.953L379.894 130.273L379.857 130.213L373.076 139.675C372.04 140.399 366.068 144.713 365.747 147.946C365.394 151.485 365.041 155.631 365.041 155.631L364.994 156.517C364.698 156.764 364.352 156.944 363.98 157.045C363.608 157.146 363.218 157.165 362.838 157.102C360.723 156.754 360.723 164.876 360.723 164.876C360.723 164.876 359.329 166.17 358.348 165.047C357.368 163.925 354.825 167.724 354.825 167.724L338.796 168.415H338.429L337.564 165.743C337.47 165.467 337.272 165.239 337.012 165.105C336.752 164.972 336.45 164.945 336.17 165.029C336.102 165.047 336.037 165.074 335.975 165.108L335.919 165.145C335.879 165.167 335.842 165.194 335.808 165.224C335.785 165.238 335.765 165.255 335.747 165.275C335.715 165.302 335.686 165.331 335.659 165.363C335.642 165.382 335.627 165.402 335.612 165.423L335.585 165.451C335.485 165.588 335.419 165.747 335.391 165.915C335.364 166.082 335.376 166.254 335.427 166.416L336.17 168.707C333.08 169.329 329.915 171.077 332.494 175.901L319.425 173.494L323.654 177.033L345.498 181.532C345.21 182.052 345.4 182.798 346.302 183.851C350.182 188.406 357.275 189.64 360.124 189.965C360.872 191.64 361.807 193.225 362.912 194.691L362.661 199.228C362.661 199.228 355.448 233.825 354.124 235.583C354.778 234.824 355.376 234.018 355.913 233.171C353.817 240.282 350.889 250.013 350.122 251.47C348.886 253.789 347.743 263.214 349.151 263.822C349.592 264.007 350.815 263.919 352.576 263.784V264.564L352.497 294.133C352.497 294.133 352.85 312.274 351.879 314C350.907 315.725 350.647 319.352 350.647 319.352C350.647 319.352 346.753 326.509 343.676 329.385L343.606 329.445L343.509 328.768C343.509 328.768 339.791 333.434 331.62 333.175C331.62 333.175 326.689 336.37 334 336.542C341.31 336.714 350.643 336.282 350.643 336.282C350.643 336.282 357.149 326.352 362.619 327.646V335.16H364.292V327.581C365.068 327.07 365.732 326.408 366.243 325.633C366.754 324.859 367.102 323.989 367.267 323.077C367.411 322.139 367.307 321.179 366.966 320.293C366.624 319.407 366.057 318.625 365.32 318.026C364.988 317.726 364.722 317.361 364.538 316.954C364.354 316.547 364.256 316.107 364.251 315.66L364.19 315.711C364.19 315.563 364.153 315.41 364.13 315.247C363.665 311.36 363.056 303.364 365.175 297.436C368.08 289.314 368.963 278.006 366.849 271.266C366.168 269.115 365.609 266.927 365.175 264.712C365.124 264.429 365.073 264.165 365.031 263.914C366.479 264.111 367.912 264.404 369.321 264.791C374.229 266.136 384.951 266.387 394.106 266.317C394.13 266.568 394.157 266.827 394.185 267.092C394.353 268.914 394.699 270.716 395.217 272.472C396.36 275.932 396.89 291.128 396.89 291.128C396.89 291.128 398.373 303.628 397.564 308.721C397.099 311.55 396.709 314.389 396.453 317.242V317.297C396.453 317.297 394.027 324.204 392.271 327.966C392.224 328.063 392.182 328.156 392.136 328.249C391.66 328.292 391.192 328.393 390.742 328.55C390.742 328.55 388.367 333.3 385.987 334.079C383.608 334.858 384.402 337.447 389.775 336.496C395.147 335.545 403.253 334.77 403.253 334.77L403.606 329.932L405.256 327.873L404.838 332.697L406.599 332.354L406.367 326.481L409.067 323.109C409.067 323.109 412.32 320.215 407.482 314.519V314.64C407.431 314.556 407.38 314.473 407.324 314.394V314.366C406.525 313.123 405.883 310.808 407.054 306.699C409.169 299.277 410.401 292.538 410.401 292.538C410.401 292.538 415.127 274.49 409.443 265.946H409.699C409.116 264.744 408.703 263.467 408.472 262.152C408.444 261.994 408.421 261.832 408.393 261.688C412.576 261.447 416.726 260.686 420.086 259.053C420.049 259.002 418.027 216.162 416.354 209.339ZM362.986 179.468V179.552L362.117 179.593L362.986 179.468ZM360.026 179.876C359.883 179.907 359.749 179.97 359.636 180.062C359.265 180.587 359.032 181.196 358.957 181.834L357.609 181.528C357.609 181.528 356.68 181.328 355.285 181.105L354.639 180.461C356.433 180.294 358.274 180.094 360.026 179.876Z" fill="url(#paint0_linear)"/>
<path d="M404.619 326.523L404.103 332.637L405.827 332.289L405.567 325.665L404.619 326.523Z" fill="#1D2366"/>
<path d="M365.296 297.519C363.219 303.424 363.814 311.397 364.279 315.27C364.451 316.704 364.609 317.59 364.609 317.59C364.609 317.59 361.504 324.649 361.244 324.909C360.983 325.169 352.097 330.577 352.097 330.577L345.888 334.19C345.888 334.19 339.591 331.435 342.635 330.48C343.251 330.232 343.806 329.854 344.262 329.371C347.273 326.505 351.089 319.375 351.089 319.375C351.089 319.375 351.344 315.762 352.293 314.041C353.241 312.32 352.897 294.245 352.897 294.245L352.976 264.772V260.932L364.79 261.02C364.866 262.325 365.037 263.622 365.301 264.902C365.727 267.108 366.276 269.289 366.946 271.433C369.001 278.163 368.141 289.425 365.296 297.519Z" fill="#FFB0B1"/>
<path opacity="0.1" d="M364.604 317.59C364.604 317.59 361.499 324.649 361.239 324.909C360.979 325.169 352.097 330.577 352.097 330.577L345.888 334.19C345.888 334.19 339.591 331.435 342.635 330.48C343.251 330.232 343.806 329.854 344.262 329.371L344.531 331.254L346.604 331.166L364.279 315.271C364.446 316.699 364.604 317.59 364.604 317.59Z" fill="black"/>
<path d="M364.39 315.679L346.581 331.69L344.508 331.774L344.08 328.764C344.08 328.764 340.455 333.402 332.434 333.152C332.434 333.152 327.605 336.338 334.757 336.51C341.91 336.681 351.061 336.25 351.061 336.25C351.061 336.25 357.442 326.352 362.787 327.646V335.132H364.427V327.558C365.19 327.045 365.842 326.383 366.342 325.612C366.842 324.841 367.18 323.977 367.337 323.072C367.48 322.14 367.379 321.187 367.046 320.304C366.712 319.422 366.156 318.64 365.431 318.035C365.106 317.734 364.846 317.369 364.667 316.964C364.488 316.559 364.394 316.122 364.39 315.679Z" fill="#1D2366"/>
<path d="M406.26 306.727C405.112 310.822 405.739 313.128 406.52 314.366V314.394C407.535 315.927 408.241 317.642 408.597 319.445L408.672 319.835L400.566 331.625L396.17 333.346C396.17 333.346 389.096 330.939 390.388 330.248C390.714 330.076 391.22 329.186 391.783 327.929C393.516 324.218 395.896 317.325 395.896 317.325V317.265C396.142 314.422 396.542 311.592 396.983 308.772C397.773 303.702 396.323 291.244 396.323 291.244C396.323 291.244 395.807 276.099 394.683 272.653C394.177 270.902 393.839 269.106 393.674 267.291C393.442 265.125 393.391 263.358 393.391 263.358C393.391 263.358 398.038 256.901 406.585 263.873C407.265 264.432 407.864 265.083 408.365 265.807C414.263 274.156 409.518 292.621 409.518 292.621C409.518 292.621 408.328 299.328 406.26 306.727Z" fill="#FFB0B1"/>
<path opacity="0.1" d="M408.672 319.811L400.566 331.602L396.17 333.323C396.17 333.323 389.096 330.916 390.388 330.225C390.714 330.053 391.22 329.162 391.783 327.905C394.776 327.905 396.328 330.726 396.328 330.726L400.12 330.127C400.12 330.127 405.126 320.312 406.246 319.714C407.366 319.116 406.418 315.233 406.418 315.233V314.245L406.506 314.352V314.38C407.528 315.916 408.239 317.636 408.597 319.445L408.672 319.811Z" fill="black"/>
<path d="M396.597 330.999C396.597 330.999 394.441 327.043 390.305 328.504C390.305 328.504 387.981 333.24 385.657 334.014C383.333 334.789 384.105 337.368 389.375 336.421C394.645 335.475 402.57 334.701 402.57 334.701L402.913 329.881L408.258 323.082C408.258 323.082 411.451 320.196 406.706 314.519V315.507C406.706 315.507 407.635 319.38 406.534 319.983C405.432 320.586 400.413 330.396 400.413 330.396L396.597 330.999Z" fill="#1D2366"/>
<path opacity="0.1" d="M364.776 261.025C364.852 262.329 365.023 263.627 365.287 264.907C360.421 264.193 355.908 264.55 352.953 264.777V260.937L364.776 261.025Z" fill="black"/>
<path opacity="0.1" d="M408.844 266.878C408.844 266.878 401.928 267.212 393.693 267.282C393.461 265.116 393.409 263.349 393.409 263.349C393.409 263.349 398.057 256.892 406.604 263.863C407.284 264.423 407.883 265.074 408.384 265.798C408.518 266.166 408.672 266.526 408.844 266.878Z" fill="black"/>
<path d="M408.844 266.104C408.844 266.104 378.574 267.565 369.34 264.986C360.105 262.407 350.973 264.638 349.592 264.035C348.212 263.432 349.337 254.053 350.522 251.729C351.707 249.406 358.371 225.908 358.371 225.908L364.753 192.683L371.482 190.828L371.947 190.698L383.663 187.451L392.257 185.085C392.257 185.085 409.332 251.618 407.863 256.516C407.331 258.396 407.247 260.373 407.617 262.291C407.847 263.613 408.26 264.896 408.844 266.104Z" fill="#1D2366"/>
<path d="M342.528 169.959C342.528 169.959 336.486 176.416 341.06 180.029C345.633 183.643 348.649 180.377 348.649 180.377L342.528 169.959Z" fill="#C7DAF5"/>
<path opacity="0.1" d="M342.528 169.959C342.528 169.959 336.486 176.416 341.06 180.029C345.633 183.643 348.649 180.377 348.649 180.377L342.528 169.959Z" fill="black"/>
<path d="M391.383 127.444C391.383 127.444 390.677 128.112 389.608 129.109C388.088 130.524 385.838 132.597 383.84 134.337C381.052 136.739 378.797 138.511 379.611 136.994C380.424 135.478 380.271 132.871 379.866 130.417L379.783 129.93C379.445 128.128 378.998 126.348 378.444 124.601C378.444 124.601 382.91 118.84 385.383 116.567C386.312 115.718 386.949 115.356 386.982 115.95C387.028 116.757 387.637 118.52 388.376 120.431C388.404 120.486 388.427 120.547 388.45 120.602C388.952 121.887 389.515 123.228 390.012 124.373C390.769 126.131 391.383 127.444 391.383 127.444Z" fill="#FFB0B1"/>
<path opacity="0.1" d="M388.446 120.602C388.026 122.856 387.007 124.956 385.496 126.682C383.985 128.409 382.038 129.698 379.857 130.417C379.515 128.449 379.04 126.505 378.435 124.601C378.435 124.601 386.842 113.756 386.972 115.95C387.051 116.785 387.674 118.631 388.446 120.602Z" fill="black"/>
<path opacity="0.1" d="M379.03 133.316L380.117 131.79C380.117 131.79 380.838 136.178 383.491 134.244C386.145 132.31 386.28 148.808 386.28 148.808L383.426 191.287L362.856 190.057L363.437 169.533L365.761 159.203L371.519 144.161L374.968 139.193L379.03 133.316Z" fill="black"/>
<path d="M386.271 149.068L383.696 187.474L383.426 191.542L371.956 190.86L371.492 190.832L362.843 190.317L363.423 169.788L365.747 159.463L371.506 144.42L374.968 139.448L379.044 133.576L380.131 132.045C380.131 132.045 380.852 136.438 383.505 134.499L383.557 134.462C386.145 132.801 386.271 149.068 386.271 149.068Z" fill="#1D2366"/>
<path d="M366.068 155.845C366.068 155.845 365.036 157.997 362.963 157.654C360.891 157.311 360.895 165.4 360.895 165.4C360.895 165.4 359.501 166.689 358.571 165.572C357.642 164.454 355.123 168.239 355.123 168.239L339.428 168.93C339.428 168.93 346.4 172.112 345.033 181.755C345.033 181.755 368.736 180.289 369.526 178.044C370.316 175.799 366.068 155.845 366.068 155.845Z" fill="white"/>
<path opacity="0.03" d="M366.068 155.845C366.068 155.845 365.036 157.997 362.963 157.654C360.891 157.311 360.895 165.4 360.895 165.4C360.895 165.4 359.501 166.689 358.571 165.572C357.642 164.454 355.123 168.239 355.123 168.239L339.428 168.93C339.428 168.93 346.4 172.112 345.033 181.755C345.033 181.755 368.736 180.289 369.526 178.044C370.316 175.799 366.068 155.845 366.068 155.845Z" fill="black"/>
<path d="M320.448 174.004L324.589 177.534L358.655 184.677L354.426 180.377L320.448 174.004Z" fill="white"/>
<path d="M379.09 134.671C378.528 135.515 376.911 139.949 375.553 143.804C374.429 147.013 373.485 149.833 373.485 149.833C373.485 149.833 371.287 164.124 370.167 166.703C369.047 169.282 369.651 179.366 369.651 179.366L365.468 204.242C365.468 204.242 363.572 217.067 360.644 224.725C357.772 232.244 354.519 235.783 354.43 235.889C355.727 234.141 362.796 199.659 362.796 199.659L365.12 156.188C365.12 156.188 365.464 152.06 365.812 148.53C366.161 145 373.141 140.181 373.141 140.181L379.89 130.603C380.582 131.544 380.127 133.121 379.09 134.671Z" fill="white"/>
<path d="M361.49 190.531C361.49 190.531 351.572 190.104 346.743 184.334C341.915 178.564 357.87 182.015 357.87 182.015L362.006 182.942L361.49 190.531Z" fill="#FFB0B1"/>
<path opacity="0.1" d="M407.896 256.549C407.364 258.428 407.279 260.406 407.649 262.323C396.811 263.093 385.216 260.162 385.216 260.162C383.059 262.143 377.366 265.069 377.366 265.069L374.261 226.677C372.282 221.51 371.505 194.399 371.505 194.399C371.505 194.399 371.682 192.98 371.97 190.855C371.97 190.804 371.97 190.749 371.993 190.698C372.77 184.76 374.317 173.614 375.052 172.107C376.088 170.043 371.863 164.537 371.863 164.537L373.783 148.173L374.015 146.202C378.072 144.393 381.177 138.627 381.177 138.627L383.557 134.453C386.155 132.792 386.28 149.059 386.28 149.059L383.705 187.465L392.299 185.099C392.299 185.099 409.36 251.641 407.896 256.549Z" fill="black"/>
<path d="M419.022 259.216C407.208 265.069 385.732 259.647 385.732 259.647C383.575 261.628 377.882 264.554 377.882 264.554L374.777 226.163C372.798 221 372.021 193.889 372.021 193.889C372.021 193.889 374.522 173.661 375.554 171.597C375.856 170.994 375.712 170.099 375.354 169.134C373.59 164.535 372.942 159.586 373.462 154.69L374.289 147.663L374.522 145.691C378.574 143.882 381.679 138.112 381.679 138.112L383.84 134.337L387.818 127.379L389.701 124.086L390.017 124.373L392.461 126.581C392.461 126.581 393.498 127.435 395.05 128.747C398.433 131.591 404.28 136.6 407.292 139.661C409.945 142.366 410.782 152.862 411.01 160.766C411.172 165.966 411.075 170.043 411.075 170.043C408.398 174.431 415.383 209.724 415.383 209.724C417.037 216.524 419.022 259.216 419.022 259.216Z" fill="white"/>
<path opacity="0.03" d="M396.347 138.029C396.347 138.029 388.237 153.438 389.189 159.287C390.142 165.136 392.81 171.768 391.513 173.318C391.07 173.904 390.496 174.38 389.837 174.709C389.178 175.037 388.452 175.209 387.716 175.21C386.424 175.298 382.971 177.706 382.971 177.965C382.971 178.225 379.783 178.225 376.929 179.431C374.076 180.637 369.856 181.323 369.856 181.323C369.856 181.323 361.662 181.064 360.886 181.838C360.11 182.613 359.334 187.261 360.974 190.962C362.615 194.663 364.423 197.419 365.803 197.92C367.183 198.421 375.893 195.512 382.962 194.821C390.031 194.13 397.741 188.555 397.741 188.555C397.741 188.555 406.19 185.54 407.659 180.461C409.127 175.382 405.846 147.496 405.846 147.496C405.846 147.496 403.318 134.499 396.347 138.029Z" fill="black"/>
<path opacity="0.03" d="M395.306 136.739C395.306 136.739 387.2 152.143 388.148 157.997C389.096 163.851 391.769 170.479 390.472 172.028C390.029 172.615 389.455 173.091 388.796 173.419C388.137 173.748 387.411 173.919 386.675 173.921C385.383 174.009 381.935 176.416 381.935 176.676C381.935 176.936 378.742 176.931 375.893 178.137C373.044 179.343 368.819 180.029 368.819 180.029C368.819 180.029 360.626 179.774 359.849 180.549C359.073 181.323 358.297 185.971 359.938 189.673C361.578 193.374 363.386 196.129 364.767 196.63C366.147 197.131 374.856 194.218 381.93 193.532C389.003 192.845 396.686 187.251 396.686 187.251C396.686 187.251 405.135 184.241 406.604 179.162C408.072 174.083 404.791 146.197 404.791 146.197C404.791 146.197 402.291 133.21 395.306 136.739Z" fill="black"/>
<path d="M396.082 137.254C396.082 137.254 387.981 152.663 388.91 158.493C389.84 164.324 392.531 170.975 391.234 172.524C390.791 173.112 390.218 173.589 389.559 173.917C388.9 174.245 388.174 174.417 387.437 174.417C386.145 174.505 382.697 176.912 382.697 177.172C382.697 177.432 379.504 177.432 376.655 178.638C373.806 179.844 369.581 180.53 369.581 180.53C369.581 180.53 361.388 180.271 360.612 181.045C359.835 181.82 359.059 186.467 360.7 190.169C362.34 193.87 364.148 196.625 365.529 197.126C366.909 197.627 375.619 194.719 382.692 194.028C389.766 193.337 397.439 187.748 397.439 187.748C397.439 187.748 405.888 184.733 407.357 179.654C408.825 174.575 405.544 146.689 405.544 146.689C405.544 146.689 403.067 133.724 396.082 137.254Z" fill="white"/>
<path opacity="0.1" d="M395.91 178.568C395.91 178.568 389.44 177.279 391.685 179.431C393.93 181.583 393.925 183.476 396.686 183.387C399.446 183.299 395.91 178.568 395.91 178.568Z" fill="black"/>
<path opacity="0.1" d="M406.864 224.961C406.864 224.961 403.931 226.942 409.536 231.501C415.141 236.061 406.864 224.961 406.864 224.961Z" fill="black"/>
<path opacity="0.1" d="M401.254 241.228C401.254 241.488 400.223 250.695 404.103 253.019C407.984 255.343 401.254 241.228 401.254 241.228Z" fill="black"/>
<path d="M339.679 168.92C336.556 169.027 329.794 169.983 333.298 176.504C336.398 182.274 341.603 178.42 344.517 175.488C343.806 172.762 342.075 170.411 339.679 168.92Z" fill="#FFB0B1"/>
<path d="M344.568 175.438C344.615 175.396 344.657 175.349 344.699 175.307C344.657 175.349 344.615 175.396 344.568 175.438Z" fill="#FFB0B1"/>
<path opacity="0.1" d="M395.05 129.003C391.732 131.266 388.948 133.177 388.408 133.576C386.917 134.671 384.072 141.127 382.26 144.42C380.801 147.074 376.074 147.755 374.289 147.922L374.503 145.97C378.556 144.165 381.66 138.395 381.66 138.395L389.682 124.369L392.443 126.864C392.443 126.864 393.498 127.694 395.05 129.003Z" fill="black"/>
<path d="M395.05 128.747C391.732 131.006 388.948 132.922 388.408 133.316C386.917 134.415 384.072 140.867 382.26 144.161C380.801 146.814 376.074 147.496 374.289 147.663L374.522 145.691C378.574 143.882 381.679 138.112 381.679 138.112L389.701 124.086L392.461 126.581C392.461 126.581 393.498 127.416 395.05 128.747Z" fill="#DCE7FF"/>
<path d="M388.664 117.759C388.667 118.657 388.572 119.553 388.381 120.431C388.035 122.071 387.365 123.626 386.41 125.004C384.674 127.524 382.091 129.339 379.128 130.121C376.166 130.902 373.021 130.598 370.265 129.263C367.508 127.928 365.322 125.651 364.103 122.846C362.885 120.04 362.714 116.891 363.623 113.971C364.532 111.051 366.459 108.552 369.056 106.929C371.652 105.305 374.746 104.664 377.775 105.123C380.804 105.581 383.569 107.108 385.567 109.426C387.565 111.745 388.664 114.701 388.664 117.759Z" fill="#FFB0B1"/>
<path opacity="0.1" d="M411.023 160.766C409.269 159.689 407.841 158.156 406.892 156.332C406.171 154.908 405.693 153.27 404.456 152.255C403.35 151.355 401.854 151.132 400.483 150.729C395.942 149.388 392.117 145.246 391.987 140.524C391.922 138.302 392.615 136.081 392.298 133.882C392.12 132.634 391.622 131.454 390.853 130.454C390.477 129.973 390.061 129.524 389.608 129.114C389.003 128.543 388.367 127.991 387.818 127.384C387.462 127.011 387.151 126.598 386.889 126.155C386.684 125.791 386.517 125.407 386.391 125.009C385.546 122.374 386.312 119.239 385.364 116.572C385.364 116.525 385.332 116.474 385.313 116.428C384.951 115.477 384.221 114.531 383.213 114.457C382.204 114.382 381.326 115.222 380.359 115.602C378.333 116.386 376.144 115.05 374.457 113.687C372.77 112.323 370.864 110.764 368.712 111.071C367.295 111.27 366.17 112.239 364.864 112.74C364.561 112.851 364.251 112.938 363.935 113C365.044 110.246 367.08 107.963 369.692 106.543C372.303 105.124 375.329 104.655 378.249 105.218C381.169 105.782 383.802 107.342 385.696 109.631C387.589 111.92 388.626 114.795 388.627 117.764C388.63 118.662 388.535 119.558 388.343 120.435C388.371 120.491 388.395 120.551 388.418 120.607C388.92 121.892 389.482 123.232 389.979 124.378L392.424 126.586C392.424 126.586 393.46 127.439 395.013 128.752C398.396 131.595 404.243 136.605 407.254 139.666C409.945 142.366 410.782 152.862 411.023 160.766Z" fill="black"/>
<path d="M364.743 104.869C365.361 103.612 365.673 102.207 366.407 101.019C367.49 99.2798 369.386 98.1898 371.324 97.5218C376.399 95.7778 387.126 93.2406 390.328 97.5218C390.96 98.3707 391.481 99.3447 392.354 99.9431C393.061 100.327 393.796 100.656 394.553 100.926C396.598 101.887 397.903 103.969 398.601 106.112C399.298 108.255 399.502 110.528 399.995 112.726C400.646 115.537 401.793 118.204 402.932 120.858C404.275 123.988 405.721 127.231 408.295 129.448C411.832 132.467 412.627 136.739 415.894 140.046C419.784 143.98 419.659 150.469 417.655 155.618C417.323 156.269 417.164 156.993 417.191 157.723C417.379 158.469 417.778 159.145 418.339 159.671L420.463 162.065C417.926 162.611 415.279 162.318 412.924 161.23C410.569 160.142 408.632 158.319 407.408 156.035C406.683 154.611 406.204 152.974 404.968 151.962C403.862 151.058 402.37 150.84 400.994 150.432C396.453 149.091 392.629 144.949 392.498 140.227C392.433 138.01 393.126 135.784 392.814 133.585C392.628 132.353 392.132 131.189 391.374 130.199C390.179 128.65 388.39 127.597 387.423 125.899C385.787 123.019 387.028 119.271 385.848 116.159C385.485 115.231 384.76 114.262 383.747 114.188C382.734 114.113 381.86 114.958 380.893 115.333C378.867 116.117 376.683 114.781 374.996 113.418C373.309 112.054 371.399 110.5 369.251 110.806C367.829 111.006 366.709 111.97 365.399 112.471C364.432 112.842 362.471 113.176 361.62 112.36C359.84 110.653 363.981 106.395 364.743 104.869Z" fill="#591D4B"/>
<path opacity="0.1" d="M408.616 154.611C407.896 153.187 407.417 151.55 406.181 150.534C405.075 149.629 403.578 149.411 402.207 149.008C397.666 147.667 393.842 143.525 393.711 138.803C393.642 136.582 394.339 134.36 394.023 132.161C393.845 130.914 393.347 129.733 392.577 128.733C391.388 127.184 389.594 126.127 388.632 124.429C386.991 121.549 388.237 117.801 387.056 114.688C386.694 113.761 385.969 112.791 384.955 112.717C383.942 112.643 383.069 113.483 382.102 113.858C380.075 114.647 377.886 113.311 376.204 111.947C374.522 110.584 372.607 109.03 370.455 109.331C369.061 109.531 367.918 110.495 366.607 111.001C365.64 111.372 363.679 111.706 362.828 110.89C361.048 109.173 365.189 104.915 365.938 103.394C366.556 102.137 366.867 100.732 367.602 99.5442L367.727 99.3494C367.18 99.8112 366.71 100.356 366.333 100.964C365.589 102.151 365.282 103.556 364.669 104.813C363.921 106.339 359.78 110.597 361.56 112.309C362.406 113.125 364.348 112.773 365.338 112.42C366.644 111.919 367.764 110.955 369.186 110.751C371.333 110.449 373.244 112.003 374.931 113.367C376.618 114.73 378.807 116.066 380.828 115.282C381.8 114.906 382.646 114.058 383.682 114.137C384.718 114.215 385.425 115.157 385.787 116.108C386.968 119.202 385.722 122.949 387.358 125.848C388.325 127.541 390.119 128.599 391.309 130.148C392.078 131.148 392.576 132.328 392.754 133.576C393.07 135.775 392.373 137.996 392.443 140.218C392.587 144.945 396.398 149.087 400.938 150.423C402.309 150.826 403.806 151.044 404.912 151.953C406.148 152.964 406.622 154.602 407.347 156.026C408.572 158.309 410.508 160.133 412.864 161.221C415.219 162.309 417.865 162.602 420.402 162.056L419.403 160.924C415.016 160.998 410.605 158.521 408.616 154.611Z" fill="black"/>
<path opacity="0.1" d="M378.835 134.93C378.268 135.775 376.65 140.209 375.298 144.059C374.034 143.572 372.881 140.436 372.881 140.436L379.615 130.858C380.322 131.804 379.866 133.381 378.835 134.93Z" fill="black"/>
<path d="M379.09 134.671C378.528 135.515 376.911 139.949 375.553 143.804C374.289 143.317 373.141 140.181 373.141 140.181L379.89 130.603C380.582 131.544 380.127 133.121 379.09 134.671Z" fill="#DCE7FF"/>
<path d="M339.86 178.717L336.119 166.958C336.074 166.82 336.057 166.674 336.069 166.53C336.081 166.385 336.121 166.244 336.188 166.114C336.254 165.985 336.345 165.87 336.457 165.776C336.568 165.682 336.696 165.611 336.835 165.567C336.973 165.521 337.12 165.503 337.265 165.514C337.411 165.525 337.553 165.565 337.682 165.632C337.812 165.698 337.928 165.79 338.021 165.901C338.115 166.013 338.186 166.142 338.229 166.281L341.97 178.049L341.599 180.512L339.86 178.717Z" fill="#BE8B87"/>
<path opacity="0.1" d="M336.472 165.915C336.611 165.87 336.757 165.853 336.903 165.865C337.048 165.877 337.19 165.918 337.319 165.985C337.449 166.052 337.564 166.143 337.658 166.255C337.752 166.366 337.823 166.495 337.867 166.634L341.608 178.392L341.324 180.247L341.599 180.53L341.97 178.067L338.229 166.309C338.186 166.17 338.115 166.041 338.021 165.929C337.927 165.818 337.812 165.726 337.682 165.659C337.553 165.593 337.411 165.553 337.265 165.542C337.12 165.531 336.973 165.549 336.835 165.595C336.602 165.667 336.4 165.816 336.263 166.017C336.329 165.975 336.399 165.941 336.472 165.915Z" fill="white"/>
<path d="M339.86 178.717L341.961 178.049L341.654 180.071L341.589 180.512L340.976 179.872L339.86 178.717Z" fill="#EFC8C4"/>
<path d="M340.976 179.872C341.014 179.827 341.06 179.79 341.111 179.76C341.141 179.742 341.175 179.732 341.211 179.732C341.246 179.732 341.28 179.742 341.31 179.76C341.341 179.795 341.366 179.834 341.385 179.876C341.413 179.925 341.452 179.967 341.498 179.998C341.545 180.029 341.599 180.05 341.654 180.057L341.589 180.521L340.976 179.872Z" fill="#727A9C"/>
<path d="M336.101 171.124C336.101 171.124 343.606 171.082 341.836 174.264C340.065 177.446 337.309 177.835 337.309 177.835L336.101 171.124Z" fill="#FFB0B1"/>
</g>
<defs>
<linearGradient id="paint0_linear" x1="370.46" y1="336.681" x2="370.46" y2="94.391" gradientUnits="userSpaceOnUse">
<stop stop-color="#808080" stop-opacity="0.25"/>
<stop offset="0.54" stop-color="#808080" stop-opacity="0.12"/>
<stop offset="1" stop-color="#808080" stop-opacity="0.1"/>
</linearGradient>
<clipPath id="clip0">
<rect width="459" height="365.226" fill="white"/>
</clipPath>
</defs>
</svg>
